Coordinates
version=1
nRows=17
nColumns=40
inDegrees=yes

Units are S.I. units (second, meters, Newtons, ...)
Angles are in degrees.

endheader
time	pelvis_tilt	pelvis_list	pelvis_rotation	pelvis_tx	pelvis_ty	pelvis_tz	hip_flexion_r	hip_adduction_r	hip_rotation_r	knee_angle_r	knee_angle_r_beta	ankle_angle_r	subtalar_angle_r	mtp_angle_r	hip_flexion_l	hip_adduction_l	hip_rotation_l	knee_angle_l	knee_angle_l_beta	ankle_angle_l	subtalar_angle_l	mtp_angle_l	lumbar_extension	lumbar_bending	lumbar_rotation	arm_flex_r	arm_add_r	arm_rot_r	elbow_flex_r	pro_sup_r	wrist_flex_r	wrist_dev_r	arm_flex_l	arm_add_l	arm_rot_l	elbow_flex_l	pro_sup_l	wrist_flex_l	wrist_dev_l
     18.49000000	     -6.83552472	     -3.77586749	     -1.44465222	      0.95981284	      0.91655234	      0.43897192	      7.38130943	     -6.38195716	     -9.57086819	     44.62644846	     44.62644846	      0.15723155	    -11.92348984	    -24.28186194	     22.89106622	     -1.26513440	      0.52620901	     31.49660264	     31.49660264	     18.23875645	    -18.15194810	     12.08710876	     -9.11308072	      4.40213786	      3.79479842	     37.54321131	    -14.87319373	    -14.95037293	     36.91463319	     45.70397554	      0.00000000	      0.00000000	     10.59947740	    -14.45173094	      9.10418399	     44.15156609	     46.27863743	      0.00000000	      0.00000000
     18.50950000	     -6.52552386	     -3.74124991	     -1.88991201	      0.95974890	      0.91461756	      0.43676220	     10.05684829	     -6.90060070	     -8.66537251	     49.75483906	     49.75483906	     -2.69662210	    -15.21744491	    -23.31305558	     22.60561314	     -1.13343253	      0.28769264	     32.50855206	     32.50855206	     19.08707030	    -18.42303206	     11.77408449	     -9.39859838	      4.85697611	      3.38620444	     34.19182716	    -14.57937511	    -15.03298042	     35.28924905	     45.75483231	      0.00000000	      0.00000000	     11.97297136	    -14.81025398	      8.84031556	     44.90430803	     46.32685999	      0.00000000	      0.00000000
     18.52900000	     -6.12973302	     -3.84345797	     -2.32070463	      0.95972310	      0.91273162	      0.43470672	     12.59955881	     -7.07468677	     -7.67986220	     54.69797757	     54.69797757	     -4.34383215	    -17.36632529	    -18.37532878	     22.28832349	     -1.11533972	      0.18921679	     33.70505982	     33.70505982	     20.49559449	    -18.57220736	     12.69023396	     -9.78667469	      5.42999333	      3.29078441	     30.94425321	    -14.48390524	    -15.82596721	     32.66043388	     45.91507808	      0.00000000	      0.00000000	     13.65226003	    -15.16598710	      9.01541610	     45.78738888	     46.34912214	      0.00000000	      0.00000000
     18.54850000	     -5.77140561	     -3.81488259	     -2.75630831	      0.95967456	      0.91083138	      0.43277390	     15.16778922	     -7.31164131	     -6.77146792	     59.40379904	     59.40379904	     -4.47298104	    -18.20462543	    -10.38894875	     21.90465142	     -0.97910912	     -0.03269596	     34.68482703	     34.68482703	     21.64841411	    -18.70314167	     13.20778691	    -10.16290877	      5.87893191	      3.18204071	     27.55959065	    -14.35627936	    -16.75185505	     30.27826579	     46.07498120	      0.00000000	      0.00000000	     15.36058935	    -15.55768915	      9.07402629	     46.58108520	     46.38477086	      0.00000000	      0.00000000
     18.56800000	     -5.52476997	     -3.69817242	     -3.25090810	      0.95958847	      0.90900483	      0.43093432	     17.59522830	     -7.66242895	     -6.02767445	     63.24543771	     63.24543771	     -4.85753006	    -18.89960315	     -5.29337837	     21.51259613	     -0.76855426	     -0.34049485	     35.39996608	     35.39996608	     22.53595649	    -18.84498430	     13.24686472	    -10.44530233	      6.22727907	      3.46303967	     23.85709742	    -14.55667122	    -17.25291915	     28.10154797	     46.18586600	      0.00000000	      0.00000000	     17.06543429	    -15.69247193	      8.80933706	     47.71844153	     46.44552205	      0.00000000	      0.00000000
     18.58750000	     -5.05912654	     -3.70399477	     -3.70165825	      0.95952704	      0.90795935	      0.42971028	     19.79999264	     -7.48439540	     -5.10214936	     66.77132798	     66.77132798	     -2.39836860	    -19.01112067	      6.55365657	     20.79267217	     -0.71546459	     -0.64428867	     35.95968532	     35.95968532	     23.53769991	    -18.87134039	     13.74356123	    -10.99513848	      6.68024470	      3.28335445	     20.63775180	    -14.24818195	    -18.41600811	     26.06723389	     46.36402946	      0.00000000	      0.00000000	     18.83321542	    -16.21614733	      8.74188468	     48.29907638	     46.48976121	      0.00000000	      0.00000000
     18.60700000	     -4.81286107	     -3.50922443	     -4.22691497	      0.95945016	      0.90721945	      0.42854720	     21.79234940	     -7.72574127	     -4.54008677	     69.02839748	     69.02839748	     -1.70365270	    -19.30060274	      9.76102210	     20.07285324	     -0.46265695	     -1.05599036	     36.02119141	     36.02119141	     24.10755843	    -18.95160612	     13.68937700	    -11.29367160	      6.92499049	      3.22820226	     17.18229243	    -14.10324102	    -19.03724944	     24.39568267	     46.47363369	      0.00000000	      0.00000000	     20.31080923	    -16.57856449	      8.32969512	     49.27981462	     46.55876258	      0.00000000	      0.00000000
     18.62650000	     -4.52028695	     -3.42311181	     -4.71914070	      0.95924949	      0.90721284	      0.42797523	     23.63599251	     -7.57872548	     -3.95394116	     70.65305236	     70.65305236	      0.44776867	    -19.40923093	     15.12822854	     19.19637270	     -0.36161842	     -1.46244815	     35.86227633	     35.86227633	     24.56836933	    -18.95444608	     13.64074134	    -11.70050565	      7.24657037	      3.11738100	     13.86232944	    -13.76473758	    -20.05048141	     23.01748392	     46.62253949	      0.00000000	      0.00000000	     21.81520540	    -17.01516242	      7.68496661	     50.26149822	     46.65020234	      0.00000000	      0.00000000
     18.64600000	     -4.38122003	     -3.29088912	     -5.29338560	      0.95894349	      0.90789018	      0.42785579	     25.38419415	     -7.38253071	     -3.46907587	     71.26925471	     71.26925471	      2.24642368	    -19.48092714	     17.20592992	     18.26911186	     -0.26777551	     -2.01046883	     35.25061126	     35.25061126	     24.72551071	    -18.94056864	     13.49486501	    -11.95737138	      7.49538717	      2.86847798	     10.65844431	    -13.36703373	    -20.82017951	     21.86024660	     46.74106973	      0.00000000	      0.00000000	     23.05782529	    -17.56547604	      6.88337257	     51.26304190	     46.74892413	      0.00000000	      0.00000000
     18.66550000	     -4.33851621	     -3.14578133	     -5.90349731	      0.95845252	      0.90926142	      0.42827548	     27.04015185	     -7.00273862	     -2.99883456	     70.97318000	     70.97318000	      4.01069357	    -19.50825704	     17.66169275	     17.26556551	     -0.18654959	     -2.58209146	     34.25586185	     34.25586185	     24.70389520	    -18.90318402	     13.44907304	    -12.14143559	      7.67737307	      2.55489299	      7.65079343	    -12.95110138	    -21.19912768	     20.80003321	     46.80952319	      0.00000000	      0.00000000	     24.22186145	    -18.24492236	      6.12600383	     52.22419546	     46.83730618	      0.00000000	      0.00000000
     18.68500000	     -4.40622324	     -3.21649689	     -6.53347302	      0.95780336	      0.91118976	      0.42938146	     28.57837050	     -6.13481567	     -2.57123879	     69.77092118	     69.77092118	      6.22221367	    -19.47964439	     18.89868347	     16.23129731	     -0.40938473	     -3.18846736	     32.98764519	     32.98764519	     24.26324269	    -18.82235540	     12.56667897	    -12.30876622	      8.07970345	      2.22209772	      4.60529179	    -12.43557593	    -22.51325538	     20.54916737	     46.98945624	      0.00000000	      0.00000000	     24.99126676	    -18.69384479	      4.08696440	     53.94123468	     47.03814287	      0.00000000	      0.00000000
     18.70450000	     -4.73484851	     -3.32871767	     -7.14780079	      0.95683323	      0.91318826	      0.43097272	     30.10569149	     -5.07909745	     -2.22643135	     67.59108827	     67.59108827	      7.96706801	    -19.39713917	     18.34083554	     15.55186879	     -0.72078054	     -3.76524514	     31.84283680	     31.84283680	     24.12330330	    -18.65251813	     12.76102781	    -12.14618759	      8.49960699	      1.60535961	      2.14036371	    -11.97078746	    -22.61577319	     19.67345844	     47.01624141	      0.00000000	      0.00000000	     26.01274633	    -19.86625399	      3.57279631	     54.41326079	     47.09297364	      0.00000000	      0.00000000
     18.72400000	     -4.81545187	     -3.43006965	     -7.89659469	      0.95613305	      0.91622721	      0.43302034	     30.86646118	     -3.98325341	     -1.82759736	     64.14069485	     64.14069485	      8.45661834	    -19.25288025	     14.17961450	     14.08061454	     -0.98298784	     -4.49783488	     29.72825314	     29.72825314	     23.12974927	    -18.56321354	     11.50783369	    -12.45377529	      8.79102090	      1.87008475	     -0.95292239	    -11.62615833	    -23.53416879	     19.70211200	     47.14850286	      0.00000000	      0.00000000	     26.57566269	    -19.86773319	      1.06223277	     57.42726822	     47.33160584	      0.00000000	      0.00000000
     18.74350000	     -5.11370164	     -3.60255957	     -8.59308370	      0.95515598	      0.91885210	      0.43545890	     31.48894632	     -2.80919171	     -1.54243448	     59.75974330	     59.75974330	      8.20125513	    -18.95337493	      8.53689916	     12.98237507	     -1.35162712	     -5.14604753	     27.87774935	     27.87774935	     22.41782605	    -18.39042600	     10.82933088	    -12.47571277	      9.16794862	      1.73639062	     -3.37933248	    -11.23738956	    -24.05484347	     19.36269033	     47.26219966	      0.00000000	      0.00000000	     27.28207263	    -20.44379522	     -0.54293082	     59.38845431	     47.47646300	      0.00000000	      0.00000000
     18.76300000	     -5.40758949	     -3.79754539	     -9.32017678	      0.95413069	      0.92136601	      0.43838652	     31.85970815	     -1.47291467	     -1.02854857	     54.85930232	     54.85930232	      8.88905956	    -18.07900098	      7.14257873	     11.87881100	     -1.74374009	     -5.78358994	     26.07101272	     26.07101272	     22.01740664	    -18.13836449	     11.05717726	    -12.52199719	      9.49198673	      1.76681596	     -5.51323168	    -10.97493617	    -24.16822978	     18.77221496	     47.29114781	      0.00000000	      0.00000000	     28.38512335	    -21.17901219	     -1.19980840	     60.58088228	     47.54773017	      0.00000000	      0.00000000
     18.78250000	     -5.80832681	     -3.90883659	    -10.01842697	      0.95325614	      0.92316096	      0.44128127	     31.65428523	     -0.69896890	     -1.17824372	     48.62115843	     48.62115843	      6.32971016	    -16.99125864	     -3.33190983	     10.87491083	     -2.06229396	     -6.52762523	     24.20914556	     24.20914556	     21.01920384	    -17.93600964	      9.47149893	    -12.47821225	      9.80587995	      1.43731072	     -7.79005396	    -10.61562978	    -24.63478196	     19.83231458	     47.33043571	      0.00000000	      0.00000000	     28.50719913	    -21.86491815	     -3.54553827	     63.72610645	     47.75278022	      0.00000000	      0.00000000
     18.80200000	     -6.30266926	     -4.06742916	    -10.68952230	      0.95236149	      0.92430311	      0.44460444	     31.51801736	      0.28292503	     -1.13918400	     42.73451784	     42.73451784	      6.73090427	    -14.13026615	     -3.35147052	     10.15794539	     -2.46185864	     -7.15309299	     22.78661257	     22.78661257	     20.88093760	    -17.55130256	      9.69166455	    -12.22142537	     10.14592774	      1.42789168	     -9.41628277	    -10.41691318	    -24.66633592	     19.30753845	     47.34536469	      0.00000000	      0.00000000	     29.62232318	    -22.64783025	     -3.96579477	     64.56817152	     47.80099990	      0.00000000	      0.00000000
